<svg width="60" height="59" viewBox="0 0 60 59" fill="none" xmlns="http://www.w3.org/2000/svg">
<rect width="60" height="59" rx="29.5" fill="#D9D9D9"/>
<path fill-rule="evenodd" clip-rule="evenodd" d="M51.0192 50.6947C45.7098 55.8359 38.4744 59 30.5 59H29.5C20.9608 59 13.269 55.3718 7.88208 49.573C9.51578 45.7303 13.2473 43.0125 17.6219 42.8062C20.625 46.1985 24.7403 48.3674 29.2449 48.3674C33.7495 48.3674 37.8648 46.1985 40.8678 42.8062C45.7023 43.0321 49.6924 46.2679 51.0192 50.6947ZM18.1224 28.9031C18.1224 21.2286 23.1275 15 29.2449 15C35.3622 15 40.3673 21.2286 40.3673 28.9031C40.3673 36.5776 35.3622 42.8062 29.2449 42.8062C23.1275 42.8062 18.1224 36.5776 18.1224 28.9031Z" fill="#797979"/>
</svg>
