<svg width="1664" height="441" viewBox="0 0 1664 441" fill="none" xmlns="http://www.w3.org/2000/svg">
<path fill-rule="evenodd" clip-rule="evenodd" d="M280 194.812C285.82 179.145 289 162.194 289 144.5C289 64.6949 224.305 0 144.5 0C64.6948 0 0 64.6949 0 144.5C0 167.501 5.37421 189.247 14.9354 208.551C13.1519 210.336 12 212.764 12 215.656V257.882V299.346C12 304.869 16.4772 309.346 22 309.346H44.4051C49.9279 309.346 54.4051 313.824 54.4051 319.346V319.693C54.4051 325.216 58.8822 329.693 64.4051 329.693H73.7648C78.0613 329.693 81.5443 333.176 81.5443 337.472C81.5443 341.769 85.0273 345.252 89.3239 345.252H99.8143C105.337 345.252 109.814 349.729 109.814 355.252V431C109.814 436.523 114.292 441 119.814 441H123.561C129.084 441 133.561 436.523 133.561 431V355.252C133.561 349.729 138.038 345.252 143.561 345.252H171.055C176.578 345.252 181.055 349.729 181.055 355.252V377.142C181.055 382.665 185.532 387.142 191.055 387.142H213.46C218.983 387.142 223.46 382.665 223.46 377.142V292.892C223.46 290.081 225.738 287.803 228.549 287.803C231.359 287.803 233.637 285.525 233.637 282.715V258.239C237.824 254.953 241.825 251.441 245.622 247.721C246.267 248.731 246.641 249.931 246.641 251.219V299.346C246.641 304.869 251.119 309.346 256.641 309.346H270C275.523 309.346 280 304.869 280 299.346V194.812ZM144.5 182C165.211 182 182 165.211 182 144.5C182 123.789 165.211 107 144.5 107C123.789 107 107 123.789 107 144.5C107 165.211 123.789 182 144.5 182ZM21 144C21 212.483 76.5167 268 145 268V258C82.0396 258 31 206.96 31 144H21ZM145 30C207.96 30 259 81.0395 259 144C259 144.334 258.999 144.667 258.996 145H268.996C268.998 144.81 268.999 144.62 268.999 144.43L269 144.201L269 144C269 75.5167 213.483 20 145 20V30ZM145.16 244.32C89.8432 244.32 45 199.477 45 144.16H55C55 193.954 95.366 234.32 145.16 234.32V244.32ZM145.16 44V54C194.954 54 235.32 94.3661 235.32 144.16C235.32 144.269 235.32 144.378 235.32 144.487L235.319 144.669C235.318 144.763 235.318 144.857 235.317 144.951H245.317C245.318 144.825 245.319 144.7 245.319 144.574L245.32 144.373L245.32 144.16C245.32 88.8432 200.477 44 145.16 44ZM144.5 176C161.897 176 176 161.897 176 144.5C176 127.103 161.897 113 144.5 113C127.103 113 113 127.103 113 144.5C113 161.897 127.103 176 144.5 176ZM144.5 152.675C149.015 152.675 152.675 149.015 152.675 144.5C152.675 139.985 149.015 136.325 144.5 136.325C139.985 136.325 136.325 139.985 136.325 144.5C136.325 149.015 139.985 152.675 144.5 152.675ZM250 326C250 320.477 254.477 316 260 316H265C270.523 316 275 320.477 275 326V350C275 355.523 270.523 360 265 360H260C254.477 360 250 355.523 250 350V326ZM304.586 273H422.242V239.367H338.219V104.953H304.586V273ZM439.82 273H473.453V104.953H439.82V273ZM603.18 273H639.156V104.953H605.523V215.695L540.719 104.953H504.742V273H538.375V162.375L603.18 273ZM670.445 273H704.078V239.367L729.742 205.031L766.656 273H804.859L751.773 175.852L804.859 104.953H766.656L704.078 188.977V104.953H670.445V273ZM820.445 273H935.641V239.367H854.078V205.852H909.273V172.219H854.078V138.586H935.641V104.953H820.445V273ZM1092.44 273H1125.95V153C1125.95 146.047 1124.62 139.523 1121.97 133.43C1119.39 127.258 1115.8 121.906 1111.19 117.375C1106.66 112.766 1101.3 109.172 1095.13 106.594C1089.04 103.938 1082.52 102.609 1075.56 102.609C1069.31 102.609 1063.3 103.742 1057.52 106.008C1051.81 108.195 1046.66 111.398 1042.05 115.617C1037.44 111.398 1032.24 108.195 1026.46 106.008C1020.68 103.742 1014.66 102.609 1008.41 102.609C1001.46 102.609 994.898 103.938 988.727 106.594C982.633 109.172 977.281 112.766 972.672 117.375C968.141 121.906 964.547 127.258 961.891 133.43C959.312 139.523 958.023 146.047 958.023 153V273H991.656V153C991.656 150.656 992.086 148.469 992.945 146.438C993.805 144.406 994.977 142.648 996.461 141.164C998.023 139.602 999.82 138.391 1001.85 137.531C1003.88 136.672 1006.07 136.242 1008.41 136.242C1010.76 136.242 1012.95 136.672 1014.98 137.531C1017.01 138.391 1018.77 139.602 1020.25 141.164C1021.81 142.648 1023.02 144.406 1023.88 146.438C1024.74 148.469 1025.17 150.656 1025.17 153V273H1058.8V153C1058.8 150.656 1059.23 148.469 1060.09 146.438C1060.95 144.406 1062.12 142.648 1063.61 141.164C1065.17 139.602 1066.97 138.391 1069 137.531C1071.03 136.672 1073.22 136.242 1075.56 136.242C1077.91 136.242 1080.09 136.672 1082.12 137.531C1084.16 138.391 1085.91 139.602 1087.4 141.164C1088.96 142.648 1090.17 144.406 1091.03 146.438C1091.97 148.469 1092.44 150.656 1092.44 153V273ZM1283.34 232.102C1286.85 223.898 1288.61 215.148 1288.61 205.852V104.953H1254.98V205.852C1254.98 210.461 1254.08 214.797 1252.28 218.859C1250.56 222.922 1248.18 226.477 1245.13 229.523C1242.09 232.57 1238.49 234.992 1234.35 236.789C1230.29 238.508 1225.95 239.367 1221.34 239.367C1216.73 239.367 1212.36 238.508 1208.22 236.789C1204.16 234.992 1200.6 232.57 1197.55 229.523C1194.51 226.477 1192.09 222.922 1190.29 218.859C1188.57 214.797 1187.71 210.461 1187.71 205.852V104.953H1154.2V205.852C1154.2 215.148 1155.95 223.898 1159.47 232.102C1162.98 240.227 1167.75 247.336 1173.77 253.43C1179.86 259.445 1186.97 264.211 1195.09 267.727C1203.3 271.242 1212.05 273 1221.34 273C1230.64 273 1239.35 271.242 1247.48 267.727C1255.68 264.211 1262.83 259.445 1268.92 253.43C1275.02 247.336 1279.82 240.227 1283.34 232.102ZM1311.93 135.773C1309.27 141.867 1307.95 148.391 1307.95 155.344C1307.95 162.297 1309.27 168.859 1311.93 175.031C1314.59 181.125 1318.18 186.477 1322.71 191.086C1327.32 195.617 1332.67 199.211 1338.77 201.867C1344.86 204.523 1351.38 205.852 1358.34 205.852H1391.97C1394.31 205.852 1396.5 206.281 1398.53 207.141C1400.56 208 1402.32 209.211 1403.8 210.773C1405.37 212.258 1406.58 214.016 1407.44 216.047C1408.3 218.078 1408.73 220.266 1408.73 222.609C1408.73 224.953 1408.3 227.141 1407.44 229.172C1406.58 231.203 1405.37 233 1403.8 234.562C1402.32 236.047 1400.56 237.219 1398.53 238.078C1396.5 238.938 1394.31 239.367 1391.97 239.367H1317.32V273H1391.97C1398.92 273 1405.45 271.672 1411.54 269.016C1417.71 266.359 1423.06 262.766 1427.59 258.234C1432.2 253.625 1435.8 248.273 1438.38 242.18C1441.03 236.086 1442.36 229.562 1442.36 222.609C1442.36 215.656 1441.03 209.133 1438.38 203.039C1435.8 196.867 1432.2 191.516 1427.59 186.984C1423.06 182.375 1417.71 178.781 1411.54 176.203C1405.45 173.547 1398.92 172.219 1391.97 172.219H1358.34C1355.99 172.219 1353.8 171.789 1351.77 170.93C1349.74 170.07 1347.95 168.898 1346.38 167.414C1344.9 165.852 1343.73 164.055 1342.87 162.023C1342.01 159.914 1341.58 157.688 1341.58 155.344C1341.58 153 1342.01 150.812 1342.87 148.781C1343.73 146.75 1344.9 144.992 1346.38 143.508C1347.95 141.945 1349.74 140.734 1351.77 139.875C1353.8 139.016 1355.99 138.586 1358.34 138.586H1435.45V104.953H1358.34C1351.38 104.953 1344.86 106.281 1338.77 108.938C1332.67 111.594 1327.32 115.227 1322.71 119.836C1318.18 124.367 1314.59 129.68 1311.93 135.773ZM1464.51 273H1498.14V104.953H1464.51V273ZM1637.36 271.242C1647.05 267.648 1655.8 262.492 1663.61 255.773L1645.8 226.477C1640.88 231.789 1635.05 235.891 1628.34 238.781C1621.62 241.594 1614.59 243 1607.24 243C1599.82 243 1592.87 241.594 1586.38 238.781C1579.9 235.969 1574.23 232.141 1569.39 227.297C1564.55 222.453 1560.72 216.828 1557.91 210.422C1555.09 203.938 1553.69 197.023 1553.69 189.68C1553.69 182.336 1555.09 175.422 1557.91 168.938C1560.72 162.375 1564.55 156.711 1569.39 151.945C1574.23 147.102 1579.9 143.273 1586.38 140.461C1592.87 137.648 1599.82 136.242 1607.24 136.242C1614.59 136.242 1621.62 137.688 1628.34 140.578C1635.05 143.391 1640.88 147.453 1645.8 152.766L1663.61 123.469C1655.8 116.672 1647.05 111.516 1637.36 108C1627.67 104.406 1617.63 102.609 1607.24 102.609C1599.27 102.609 1591.58 103.664 1584.16 105.773C1576.81 107.805 1569.9 110.734 1563.41 114.562C1557.01 118.312 1551.15 122.844 1545.84 128.156C1540.52 133.469 1535.95 139.367 1532.12 145.852C1528.38 152.258 1525.45 159.172 1523.34 166.594C1521.3 174.016 1520.29 181.711 1520.29 189.68C1520.29 197.648 1521.3 205.344 1523.34 212.766C1525.45 220.109 1528.38 227.023 1532.12 233.508C1535.95 239.914 1540.52 245.773 1545.84 251.086C1551.15 256.398 1557.01 260.969 1563.41 264.797C1569.9 268.547 1576.81 271.438 1584.16 273.469C1591.58 275.578 1599.27 276.633 1607.24 276.633C1617.63 276.633 1627.67 274.836 1637.36 271.242Z" fill="black"/>
</svg>
