<svg width="47" height="41" viewBox="0 0 47 41" fill="none" xmlns="http://www.w3.org/2000/svg">
<path fill-rule="evenodd" clip-rule="evenodd" d="M0 3.5C0 1.56702 1.56701 0 3.5 0H43.5C45.433 0 47 1.56702 47 3.5C47 5.43298 45.433 7 43.5 7H3.5C1.567 7 0 5.43298 0 3.5ZM0 20.5C0 18.567 1.56701 17 3.5 17H43.5C45.433 17 47 18.567 47 20.5C47 22.433 45.433 24 43.5 24H3.5C1.567 24 0 22.433 0 20.5ZM3.5 34C1.56701 34 0 35.567 0 37.5C0 39.433 1.567 41 3.5 41H43.5C45.433 41 47 39.433 47 37.5C47 35.567 45.433 34 43.5 34H3.5Z" fill="#D9D9D9"/>
</svg>
