<svg width="39" height="39" viewBox="0 0 39 39" fill="none" xmlns="http://www.w3.org/2000/svg">
<path d="M39 0C14.625 0 9.75 4.875 9.75 4.875V24.8138C9.01875 24.57 8.14125 24.375 7.3125 24.375C3.26625 24.375 0 27.6413 0 31.6875C0 35.7337 3.26625 39 7.3125 39C11.3588 39 14.625 35.7337 14.625 31.6875V12.3337C18.1838 11.2125 24.3263 10.1888 34.125 9.89625V19.9388C33.3937 19.695 32.5163 19.5 31.6875 19.5C27.6413 19.5 24.375 22.7663 24.375 26.8125C24.375 30.8587 27.6413 34.125 31.6875 34.125C35.7337 34.125 39 30.8587 39 26.8125V0Z" fill="#308C98"/>
</svg>
