<svg width="60" height="61" viewBox="0 0 60 61" fill="none" xmlns="http://www.w3.org/2000/svg">
<path d="M2.55488 0.0152171C1.77877 0.276117 1.10939 0.783885 0.648973 1.46097C0.188558 2.13805 -0.0375796 2.94722 0.00509941 3.7649V41.2617C0.00509941 42.2562 0.400154 43.2099 1.10336 43.9131C1.80656 44.6163 2.7603 45.0114 3.75478 45.0114H22.5032V52.5107H15.0038C10.8792 52.5107 7.50446 55.8855 7.50446 60.0101H52.5006C52.5006 55.8855 49.1259 52.5107 45.0013 52.5107H37.5019V45.0114H56.2503C57.2448 45.0114 58.1985 44.6163 58.9017 43.9131C59.6049 43.2099 60 42.2562 60 41.2617V3.7649C60 2.77042 59.6049 1.81667 58.9017 1.11347C58.1985 0.410272 57.2448 0.0152171 56.2503 0.0152171L3.75478 0.0152171C3.53026 -0.00507236 3.30436 -0.00507236 3.07984 0.0152171C2.92999 0.00620974 2.77973 0.00620974 2.62988 0.0152171L2.55488 0.0152171ZM7.50446 7.51458H52.5006V37.512H7.50446V7.51458Z" fill="#48CCDD"/>
</svg>
