<svg width="27" height="25" viewBox="0 0 27 25" fill="none" xmlns="http://www.w3.org/2000/svg">
<path d="M11.291 0.0309696C5.06482 0.0309696 0 4.8932 0 10.8703C0 16.8475 5.06482 21.7097 11.291 21.7097C13.1943 21.7097 15.0654 21.2761 16.6462 20.44C16.7728 20.5862 16.9132 20.721 17.0656 20.8426L20.2916 23.9395C20.5894 24.2613 20.9527 24.5212 21.359 24.7034C21.7653 24.8855 22.2061 24.986 22.6543 24.9986C23.1025 25.0113 23.5487 24.9359 23.9655 24.777C24.3823 24.6181 24.7608 24.3792 25.0779 24.0748C25.395 23.7704 25.6439 23.407 25.8094 23.0069C25.9749 22.6068 26.0534 22.1784 26.0402 21.7481C26.027 21.3179 25.9224 20.8947 25.7327 20.5046C25.5429 20.1146 25.2722 19.7659 24.937 19.4799L21.711 16.3829C21.5539 16.232 21.3809 16.0971 21.1948 15.9803C22.0659 14.4628 22.6143 12.6975 22.6143 10.8394C22.6143 4.86223 17.5495 0 11.3233 0L11.291 0.0309696ZM11.291 3.12793C15.7752 3.12793 19.356 6.56556 19.356 10.8703C19.356 12.9143 18.5818 14.8035 17.2269 16.1971C17.1946 16.2281 17.1623 16.2591 17.1301 16.29C16.9777 16.4116 16.8373 16.5463 16.7107 16.6926C15.2913 17.9314 13.3557 18.6437 11.2587 18.6437C6.77461 18.6437 3.19374 15.2061 3.19374 10.9013C3.19374 6.59653 6.77461 3.1589 11.2587 3.1589L11.291 3.12793Z" fill="#00000D"/>
</svg>
