<svg width="38" height="40" viewBox="0 0 38 40" fill="none" xmlns="http://www.w3.org/2000/svg">
<path fill-rule="evenodd" clip-rule="evenodd" d="M38 31.3579C33.2945 36.3098 26.6451 39.3972 19.2747 39.3972H18.3992C11.1975 39.3972 4.68418 36.4495 0 31.6948C1.17981 27.7741 4.69171 24.9105 8.87558 24.7102C11.5047 27.7248 15.1077 29.6522 19.0514 29.6522C22.9951 29.6522 26.5981 27.7248 29.2272 24.7102C33.3286 24.9047 36.7359 27.6109 38 31.3579ZM9.31377 12.3551C9.31377 5.53508 13.6957 0 19.0514 0C24.4071 0 28.789 5.53508 28.789 12.3551C28.789 19.1751 24.4071 24.7102 19.0514 24.7102C13.6957 24.7102 9.31377 19.1751 9.31377 12.3551Z" fill="#308C98"/>
</svg>
